{
    "accessors" : [
        {
            "bufferView" : 0,
            "componentType" : 5123,
            "count" : 54912,
            "max" : [
                10242
            ],
            "min" : [
                0
            ],
            "type" : "SCALAR"
        },
        {
            "bufferView" : 1,
            "componentType" : 5126,
            "count" : 10243,
            "max" : [
                9.151884078979492,
                15.65620231628418,
                8.937173843383789
            ],
            "min" : [
                -6.721573829650879,
                -9.485443115234375,
                -9.62993049621582
            ],
            "type" : "VEC3"
        },
        {
            "bufferView" : 2,
            "componentType" : 5126,
            "count" : 10243,
            "max" : [
                0.999908447265625,
                0.999420166015625,
                0.9998779296875
            ],
            "min" : [
                -0.9993896484375,
                -0.99932861328125,
                -0.999908447265625
            ],
            "type" : "VEC3"
        },
        {
            "bufferView" : 3,
            "componentType" : 5126,
            "count" : 10243,
            "max" : [
                0.9996849298477173,
                0.9985450506210327,
                0.9995779991149902,
                1.0
            ],
            "min" : [
                -0.9999205470085144,
                -0.9995651245117188,
                -0.999875009059906,
                -1.0
            ],
            "type" : "VEC4"
        },
        {
            "bufferView" : 4,
            "componentType" : 5126,
            "count" : 10243,
            "max" : [
                0.9607294201850891,
                0.9997789561748505
            ],
            "min" : [
                0.00029718794394284487,
                0.025660812854766846
            ],
            "type" : "VEC2"
        },
        {
            "bufferView" : 5,
            "componentType" : 5123,
            "count" : 10243,
            "max" : [
                0,
                0,
                0,
                0
            ],
            "min" : [
                0,
                0,
                0,
                0
            ],
            "type" : "VEC4"
        },
        {
            "bufferView" : 6,
            "componentType" : 5126,
            "count" : 10243,
            "max" : [
                0.0,
                0.0,
                0.0,
                0.0
            ],
            "min" : [
                0.0,
                0.0,
                0.0,
                0.0
            ],
            "type" : "VEC4"
        },
        {
            "bufferView" : 7,
            "componentType" : 5123,
            "count" : 54912,
            "max" : [
                10242
            ],
            "min" : [
                0
            ],
            "type" : "SCALAR"
        },
        {
            "bufferView" : 8,
            "componentType" : 5126,
            "count" : 10243,
            "max" : [
                9.151884078979492,
                15.65620231628418,
                8.937173843383789
            ],
            "min" : [
                -6.721573829650879,
                -9.485443115234375,
                -9.62993049621582
            ],
            "type" : "VEC3"
        },
        {
            "bufferView" : 9,
            "componentType" : 5126,
            "count" : 10243,
            "max" : [
                0.999908447265625,
                0.999420166015625,
                0.9998779296875
            ],
            "min" : [
                -0.9993896484375,
                -0.99932861328125,
                -0.999908447265625
            ],
            "type" : "VEC3"
        },
        {
            "bufferView" : 10,
            "componentType" : 5126,
            "count" : 10243,
            "max" : [
                0.9996849298477173,
                0.9985450506210327,
                0.9995779991149902,
                1.0
            ],
            "min" : [
                -0.9999205470085144,
                -0.9995651245117188,
                -0.999875009059906,
                -1.0
            ],
            "type" : "VEC4"
        },
        {
            "bufferView" : 11,
            "componentType" : 5126,
            "count" : 10243,
            "max" : [
                0.9607294201850891,
                0.9997789561748505
            ],
            "min" : [
                0.00029718794394284487,
                0.025660812854766846
            ],
            "type" : "VEC2"
        },
        {
            "bufferView" : 12,
            "componentType" : 5123,
            "count" : 10243,
            "max" : [
                0,
                0,
                0,
                0
            ],
            "min" : [
                0,
                0,
                0,
                0
            ],
            "type" : "VEC4"
        },
        {
            "bufferView" : 13,
            "componentType" : 5126,
            "count" : 10243,
            "max" : [
                0.0,
                0.0,
                0.0,
                0.0
            ],
            "min" : [
                0.0,
                0.0,
                0.0,
                0.0
            ],
            "type" : "VEC4"
        },
        {
            "bufferView" : 14,
            "componentType" : 5123,
            "count" : 54912,
            "max" : [
                10242
            ],
            "min" : [
                0
            ],
            "type" : "SCALAR"
        },
        {
            "bufferView" : 15,
            "componentType" : 5126,
            "count" : 10243,
            "max" : [
                9.151884078979492,
                15.65620231628418,
                8.937173843383789
            ],
            "min" : [
                -6.721573829650879,
                -9.485443115234375,
                -9.62993049621582
            ],
            "type" : "VEC3"
        },
        {
            "bufferView" : 16,
            "componentType" : 5126,
            "count" : 10243,
            "max" : [
                0.999908447265625,
                0.999420166015625,
                0.9998779296875
            ],
            "min" : [
                -0.9993896484375,
                -0.99932861328125,
                -0.999908447265625
            ],
            "type" : "VEC3"
        },
        {
            "bufferView" : 17,
            "componentType" : 5126,
            "count" : 10243,
            "max" : [
                0.9996849298477173,
                0.9985450506210327,
                0.9995779991149902,
                1.0
            ],
            "min" : [
                -0.9999205470085144,
                -0.9995651245117188,
                -0.999875009059906,
                -1.0
            ],
            "type" : "VEC4"
        },
        {
            "bufferView" : 18,
            "componentType" : 5126,
            "count" : 10243,
            "max" : [
                0.9607294201850891,
                0.9997789561748505
            ],
            "min" : [
                0.00029718794394284487,
                0.025660812854766846
            ],
            "type" : "VEC2"
        },
        {
            "bufferView" : 19,
            "componentType" : 5123,
            "count" : 10243,
            "max" : [
                0,
                0,
                0,
                0
            ],
            "min" : [
                0,
                0,
                0,
                0
            ],
            "type" : "VEC4"
        },
        {
            "bufferView" : 20,
            "componentType" : 5126,
            "count" : 10243,
            "max" : [
                0.0,
                0.0,
                0.0,
                0.0
            ],
            "min" : [
                0.0,
                0.0,
                0.0,
                0.0
            ],
            "type" : "VEC4"
        },
        {
            "bufferView" : 21,
            "componentType" : 5123,
            "count" : 54912,
            "max" : [
                10387
            ],
            "min" : [
                0
            ],
            "type" : "SCALAR"
        },
        {
            "bufferView" : 22,
            "componentType" : 5126,
            "count" : 10388,
            "max" : [
                9.151884078979492,
                15.65620231628418,
                8.937173843383789
            ],
            "min" : [
                -6.721573829650879,
                -9.485443115234375,
                -9.62993049621582
            ],
            "type" : "VEC3"
        },
        {
            "bufferView" : 23,
            "componentType" : 5126,
            "count" : 10388,
            "max" : [
                0.999908447265625,
                0.999420166015625,
                0.9998779296875
            ],
            "min" : [
                -0.9993896484375,
                -0.99932861328125,
                -0.999908447265625
            ],
            "type" : "VEC3"
        },
        {
            "bufferView" : 24,
            "componentType" : 5126,
            "count" : 10388,
            "max" : [
                1.0,
                0.9985120892524719,
                0.9997085928916931,
                1.0
            ],
            "min" : [
                -0.9999204874038696,
                -0.9999854564666748,
                -0.999873697757721,
                -1.0
            ],
            "type" : "VEC4"
        },
        {
            "bufferView" : 25,
            "componentType" : 5126,
            "count" : 10388,
            "max" : [
                0.9822449684143066,
                0.9996771095320582
            ],
            "min" : [
                0.000322890467941761,
                0.1261652112007141
            ],
            "type" : "VEC2"
        },
        {
            "bufferView" : 26,
            "componentType" : 5123,
            "count" : 10388,
            "max" : [
                0,
                0,
                0,
                0
            ],
            "min" : [
                0,
                0,
                0,
                0
            ],
            "type" : "VEC4"
        },
        {
            "bufferView" : 27,
            "componentType" : 5126,
            "count" : 10388,
            "max" : [
                0.0,
                0.0,
                0.0,
                0.0
            ],
            "min" : [
                0.0,
                0.0,
                0.0,
                0.0
            ],
            "type" : "VEC4"
        }
    ],
    "asset" : {
        "generator" : "Khronos Blender glTF 2.0 exporter",
        "version" : "2.0"
    },
    "bufferViews" : [
        {
            "buffer" : 0,
            "byteLength" : 109824,
            "byteOffset" : 0,
            "target" : 34963
        },
        {
            "buffer" : 0,
            "byteLength" : 122916,
            "byteOffset" : 109824,
            "target" : 34962
        },
        {
            "buffer" : 0,
            "byteLength" : 122916,
            "byteOffset" : 232740,
            "target" : 34962
        },
        {
            "buffer" : 0,
            "byteLength" : 163888,
            "byteOffset" : 355656,
            "target" : 34962
        },
        {
            "buffer" : 0,
            "byteLength" : 81944,
            "byteOffset" : 519544,
            "target" : 34962
        },
        {
            "buffer" : 0,
            "byteLength" : 81944,
            "byteOffset" : 601488,
            "target" : 34962
        },
        {
            "buffer" : 0,
            "byteLength" : 163888,
            "byteOffset" : 683432,
            "target" : 34962
        },
        {
            "buffer" : 0,
            "byteLength" : 109824,
            "byteOffset" : 847320,
            "target" : 34963
        },
        {
            "buffer" : 0,
            "byteLength" : 122916,
            "byteOffset" : 957144,
            "target" : 34962
        },
        {
            "buffer" : 0,
            "byteLength" : 122916,
            "byteOffset" : 1080060,
            "target" : 34962
        },
        {
            "buffer" : 0,
            "byteLength" : 163888,
            "byteOffset" : 1202976,
            "target" : 34962
        },
        {
            "buffer" : 0,
            "byteLength" : 81944,
            "byteOffset" : 1366864,
            "target" : 34962
        },
        {
            "buffer" : 0,
            "byteLength" : 81944,
            "byteOffset" : 1448808,
            "target" : 34962
        },
        {
            "buffer" : 0,
            "byteLength" : 163888,
            "byteOffset" : 1530752,
            "target" : 34962
        },
        {
            "buffer" : 0,
            "byteLength" : 109824,
            "byteOffset" : 1694640,
            "target" : 34963
        },
        {
            "buffer" : 0,
            "byteLength" : 122916,
            "byteOffset" : 1804464,
            "target" : 34962
        },
        {
            "buffer" : 0,
            "byteLength" : 122916,
            "byteOffset" : 1927380,
            "target" : 34962
        },
        {
            "buffer" : 0,
            "byteLength" : 163888,
            "byteOffset" : 2050296,
            "target" : 34962
        },
        {
            "buffer" : 0,
            "byteLength" : 81944,
            "byteOffset" : 2214184,
            "target" : 34962
        },
        {
            "buffer" : 0,
            "byteLength" : 81944,
            "byteOffset" : 2296128,
            "target" : 34962
        },
        {
            "buffer" : 0,
            "byteLength" : 163888,
            "byteOffset" : 2378072,
            "target" : 34962
        },
        {
            "buffer" : 0,
            "byteLength" : 109824,
            "byteOffset" : 2541960,
            "target" : 34963
        },
        {
            "buffer" : 0,
            "byteLength" : 124656,
            "byteOffset" : 2651784,
            "target" : 34962
        },
        {
            "buffer" : 0,
            "byteLength" : 124656,
            "byteOffset" : 2776440,
            "target" : 34962
        },
        {
            "buffer" : 0,
            "byteLength" : 166208,
            "byteOffset" : 2901096,
            "target" : 34962
        },
        {
            "buffer" : 0,
            "byteLength" : 83104,
            "byteOffset" : 3067304,
            "target" : 34962
        },
        {
            "buffer" : 0,
            "byteLength" : 83104,
            "byteOffset" : 3150408,
            "target" : 34962
        },
        {
            "buffer" : 0,
            "byteLength" : 166208,
            "byteOffset" : 3233512,
            "target" : 34962
        }
    ],
    "buffers" : [
        {
            "byteLength" : 3399720,
            "uri" : "dendrites1.bin"
        }
    ],
    "cameras" : [
        {
            "name" : "Camera",
            "perspective" : {
                "aspectRatio" : 1.7777777777777777,
                "yfov" : 0.2786763755344571,
                "zfar" : 53.10000228881836,
                "znear" : 0.0010000000474974513
            },
            "type" : "perspective"
        }
    ],
    "meshes" : [
        {
            "name" : "Cube.029",
            "primitives" : [
                {
                    "attributes" : {
                        "JOINTS_0" : 5,
                        "NORMAL" : 2,
                        "POSITION" : 1,
                        "TANGENT" : 3,
                        "TEXCOORD_0" : 4,
                        "WEIGHTS_0" : 6
                    },
                    "indices" : 0
                }
            ]
        },
        {
            "name" : "Cube.028",
            "primitives" : [
                {
                    "attributes" : {
                        "JOINTS_0" : 12,
                        "NORMAL" : 9,
                        "POSITION" : 8,
                        "TANGENT" : 10,
                        "TEXCOORD_0" : 11,
                        "WEIGHTS_0" : 13
                    },
                    "indices" : 7
                }
            ]
        },
        {
            "name" : "Cube.027",
            "primitives" : [
                {
                    "attributes" : {
                        "JOINTS_0" : 19,
                        "NORMAL" : 16,
                        "POSITION" : 15,
                        "TANGENT" : 17,
                        "TEXCOORD_0" : 18,
                        "WEIGHTS_0" : 20
                    },
                    "indices" : 14
                }
            ]
        },
        {
            "name" : "Cube",
            "primitives" : [
                {
                    "attributes" : {
                        "JOINTS_0" : 26,
                        "NORMAL" : 23,
                        "POSITION" : 22,
                        "TANGENT" : 24,
                        "TEXCOORD_0" : 25,
                        "WEIGHTS_0" : 27
                    },
                    "indices" : 21
                }
            ]
        }
    ],
    "nodes" : [
        {
            "mesh" : 3,
            "name" : "dendrite-1",
            "translation" : [
                0.0,
                -1.1920928955078125e-07,
                -0.0
            ]
        },
        {
            "mesh" : 2,
            "name" : "dendrite-1.001",
            "rotation" : [
                0.0,
                -0.7887237071990967,
                -0.0,
                0.6147478222846985
            ],
            "translation" : [
                -10.303567886352539,
                -2.128386974334717,
                -7.432639122009277
            ]
        },
        {
            "mesh" : 1,
            "name" : "dendrite-1.002",
            "rotation" : [
                0.0,
                0.5160666704177856,
                -0.0,
                0.856548547744751
            ],
            "translation" : [
                -15.701796531677246,
                -6.763794422149658,
                -19.443429946899414
            ]
        },
        {
            "mesh" : 0,
            "name" : "dendrite-1.003",
            "rotation" : [
                -0.09147213399410248,
                -0.5621419548988342,
                -0.132014662027359,
                0.8112961053848267
            ],
            "translation" : [
                -6.34172248840332,
                0.3568742275238037,
                -15.336918830871582
            ]
        },
        {
            "name" : "lamp1",
            "rotation" : [
                0.16907575726509094,
                0.7558802962303162,
                -0.27217137813568115,
                0.570947527885437
            ],
            "scale" : [
                1.0,
                1.0,
                0.9999999403953552
            ],
            "translation" : [
                -8.35471248626709,
                4.441546440124512,
                -2.16145658493042
            ]
        },
        {
            "name" : "lamp2",
            "rotation" : [
                0.16907575726509094,
                0.7558802962303162,
                -0.27217137813568115,
                0.570947527885437
            ],
            "scale" : [
                1.0,
                1.0,
                0.9999999403953552
            ],
            "translation" : [
                4.116264343261719,
                10.407773971557617,
                3.06504225730896
            ]
        },
        {
            "name" : "lamp3",
            "rotation" : [
                0.16907575726509094,
                0.7558802962303162,
                -0.27217137813568115,
                0.570947527885437
            ],
            "scale" : [
                1.0,
                1.0,
                0.9999999403953552
            ],
            "translation" : [
                -9.395929336547852,
                5.676528453826904,
                -12.234671592712402
            ]
        },
        {
            "name" : "lamp4",
            "translation" : [
                2.842677116394043,
                6.706624507904053,
                0.8182216286659241
            ]
        },
        {
            "camera" : 0,
            "name" : "Correction_main-cam",
            "rotation" : [
                -0.7071067690849304,
                -0.0,
                0.0,
                0.7071067690849304
            ]
        },
        {
            "children" : [
                8
            ],
            "name" : "main-cam",
            "rotation" : [
                0.6220769286155701,
                0.17357242107391357,
                -0.19802504777908325,
                0.7373459339141846
            ],
            "scale" : [
                1.0,
                0.9999999403953552,
                1.0000001192092896
            ],
            "translation" : [
                4.42071008682251,
                2.4801340103149414,
                9.453583717346191
            ]
        }
    ],
    "scene" : 0,
    "scenes" : [
        {
            "name" : "Scene",
            "nodes" : [
                3,
                2,
                1,
                7,
                6,
                5,
                4,
                0,
                9
            ]
        }
    ]
}
